<svg id="Layer_1" data-name="Layer 1" xmlns="http://www.w3.org/2000/svg" viewBox="0 0 301 251"><defs><style>.cls-1{fill:none;stroke:#000;stroke-miterlimit:10;}.cls-2{fill:#181818;}.cls-3{isolation:isolate;font-size:100px;fill:#fff;font-family:Modern-Regular, Modern No. 20;}</style></defs><title>svg_template_300x250</title><rect class="cls-1" x="0.5" y="0.5" width="300" height="250"/><path d="M104.25,121.15a10.31,10.31,0,0,1,2-.2,3.17,3.17,0,0,1,2.3.7,2.41,2.41,0,0,1,.7,1.7,2.35,2.35,0,0,1-.6,1.7,3.49,3.49,0,0,1-2.5.9,2,2,0,0,1-.8-.1V129h-1v-7.9Zm1,3.9a2.22,2.22,0,0,0,.9.1c1.3,0,2-.6,2-1.7s-.8-1.6-1.9-1.6a2.51,2.51,0,0,0-1,.1Z" transform="translate(0.5 0.5)"/><path d="M110.55,120.65h1.1v8.5h-1.1Z" transform="translate(0.5 0.5)"/><path d="M116.55,129.15l-.1-.7h0a2,2,0,0,1-1.8.9,1.65,1.65,0,0,1-1.8-1.7c0-1.4,1.2-2.2,3.5-2.2v-.1A1.14,1.14,0,0,0,115,124a3.71,3.71,0,0,0-1.5.4l-.2-.7a3.83,3.83,0,0,1,1.9-.5c1.8,0,2.2,1.2,2.2,2.4v2.2a6.15,6.15,0,0,0,.1,1.4h-1Zm-.1-2.9c-1.2,0-2.5.2-2.5,1.3a.94.94,0,0,0,1,1,1.44,1.44,0,0,0,1.4-1c0-.1.1-.2.1-.3Z" transform="translate(0.5 0.5)"/><path d="M123.25,128.95a5.17,5.17,0,0,1-1.7.3,2.76,2.76,0,0,1-2.9-3,2.94,2.94,0,0,1,3.1-3.1,4.91,4.91,0,0,1,1.5.3l-.2.8a3,3,0,0,0-1.2-.3,2.21,2.21,0,0,0-.1,4.4,3.55,3.55,0,0,0,1.3-.3Z" transform="translate(0.5 0.5)"/><path d="M125.05,126.45a1.84,1.84,0,0,0,2,2,3.23,3.23,0,0,0,1.6-.3l.2.8a4.14,4.14,0,0,1-1.9.4,2.73,2.73,0,0,1-2.9-2.9c0-1.8,1-3.1,2.7-3.1a2.46,2.46,0,0,1,2.4,2.7v.5h-4.1Zm3.1-.7a1.51,1.51,0,0,0-1.5-1.7,1.73,1.73,0,0,0-1.6,1.7Z" transform="translate(0.5 0.5)"/><path d="M137.15,128.95a5.17,5.17,0,0,1-1.7.3,2.76,2.76,0,0,1-2.9-3,2.94,2.94,0,0,1,3.1-3.1,4.91,4.91,0,0,1,1.5.3l-.2.8a3,3,0,0,0-1.2-.3,2.21,2.21,0,0,0-.1,4.4,3.55,3.55,0,0,0,1.3-.3Z" transform="translate(0.5 0.5)"/><path d="M143.55,126.25a2.89,2.89,0,0,1-2.9,3.1,2.79,2.79,0,0,1-2.8-3,2.89,2.89,0,0,1,2.9-3.1A2.73,2.73,0,0,1,143.55,126.25Zm-4.6,0c0,1.3.7,2.2,1.8,2.2s1.8-.9,1.8-2.3c0-1-.5-2.2-1.7-2.2A2.12,2.12,0,0,0,138.95,126.25Z" transform="translate(0.5 0.5)"/><path d="M144.95,124.95v-1.6h.9l.1,1h0a2.1,2.1,0,0,1,1.9-1.1c.8,0,2.1.5,2.1,2.5v3.5h-1.2v-3.3c0-.9-.3-1.7-1.3-1.7a1.5,1.5,0,0,0-1.4,1.1,4.33,4.33,0,0,0-.1.5v3.5h-1.1v-4.4Z" transform="translate(0.5 0.5)"/><path d="M152.75,121.75v1.7h1.5v.8h-1.5v3.1c0,.7.2,1.1.8,1.1.3,0,.5,0,.6-.1v.8a2.22,2.22,0,0,1-.9.1,1.6,1.6,0,0,1-1.1-.4,2.08,2.08,0,0,1-.4-1.5v-3.2h-.9v-.8h.9V122Z" transform="translate(0.5 0.5)"/><path d="M156.05,126.45a1.84,1.84,0,0,0,2,2,3.23,3.23,0,0,0,1.6-.3l.2.8a4.14,4.14,0,0,1-1.9.4,2.73,2.73,0,0,1-2.9-2.9c0-1.8,1-3.1,2.7-3.1a2.46,2.46,0,0,1,2.4,2.7v.5h-4.1Zm3-.7a1.51,1.51,0,0,0-1.5-1.7,1.73,1.73,0,0,0-1.6,1.7Z" transform="translate(0.5 0.5)"/><path d="M161.45,124.95v-1.6h.9l.1,1h0a2.1,2.1,0,0,1,1.9-1.1c.8,0,2.1.5,2.1,2.5v3.5h-1.1v-3.3c0-.9-.3-1.7-1.3-1.7a1.5,1.5,0,0,0-1.4,1.1,4.33,4.33,0,0,0-.1.5v3.5h-1.1v-4.4Z" transform="translate(0.5 0.5)"/><path d="M169.35,121.75v1.7h1.5v.8h-1.5v3.1c0,.7.2,1.1.8,1.1.3,0,.5,0,.6-.1v.8a2.22,2.22,0,0,1-.9.1,1.6,1.6,0,0,1-1.1-.4,2.08,2.08,0,0,1-.4-1.5v-3.2h-.9v-.8h.9V122Z" transform="translate(0.5 0.5)"/><path d="M174.55,120.65h1.1v3.6h0a1.39,1.39,0,0,1,.8-.7,2,2,0,0,1,1.1-.3c.8,0,2,.5,2,2.5v3.5h-1.1v-3.3c0-.9-.3-1.7-1.3-1.7a1.5,1.5,0,0,0-1.4,1.1.75.75,0,0,0-.1.5v3.5h-1.1Z" transform="translate(0.5 0.5)"/><path d="M181.85,126.45a1.84,1.84,0,0,0,2,2,3.23,3.23,0,0,0,1.6-.3l.2.8a4.14,4.14,0,0,1-1.9.4,2.73,2.73,0,0,1-2.9-2.9c0-1.8,1-3.1,2.7-3.1A2.46,2.46,0,0,1,186,126v.5h-4.1Zm3-.7a1.51,1.51,0,0,0-1.5-1.7,1.73,1.73,0,0,0-1.6,1.7Z" transform="translate(0.5 0.5)"/><path d="M187.25,125.15v-1.8h.9v1.1h0a1.78,1.78,0,0,1,1.6-1.3h.3v1h-.4a1.5,1.5,0,0,0-1.4,1.4v3.6h-1v-4Z" transform="translate(0.5 0.5)"/><path d="M191.65,126.45a1.84,1.84,0,0,0,2,2,3.23,3.23,0,0,0,1.6-.3l.2.8a4.14,4.14,0,0,1-1.9.4,2.73,2.73,0,0,1-2.9-2.9c0-1.8,1-3.1,2.7-3.1a2.46,2.46,0,0,1,2.4,2.7v.5h-4.1Zm3.1-.7a1.51,1.51,0,0,0-1.5-1.7,1.73,1.73,0,0,0-1.6,1.7Z" transform="translate(0.5 0.5)"/><path class="cls-2" d="M134.33,53.06c-3.67-3.67-27-26.56-46.06-20.15-23,7.74-32.17,55.75-15.47,83.85,18.46,31.09,55.49,16,90.69,51.46,31.89,32.1,28.65,71.8,39.95,71.26,15-.72,22.17-70.5,25.91-106.88,6.95-67.3,10.9-109.84-9-120.56-19.29-10.36-38.72,21.12-82.41,13-17.09-3.2-45.74-13.93-46.06-14h0q24.67.38,49.3.72" transform="translate(0.5 0.5)"/><text class="cls-3" transform="translate(75.5 123.5)">MK</text></svg>